<svg width="410" height="166" viewBox="0 0 410 166" fill="none" xmlns="http://www.w3.org/2000/svg">
<g clip-path="url(#clip0)">
<path d="M56.13 24.6999C61.13 27.2199 64.97 30.7699 67.66 35.3499C70.35 39.9299 71.69 45.2799 71.69 51.4099C71.69 54.2699 71.27 57.6699 70.43 61.6199H22.05C22.47 65.4799 23.94 68.4699 26.46 70.5699C28.98 72.6699 32.38 73.7199 36.67 73.7199C42.3 73.7199 47.51 71.8299 52.29 68.0499L63.5 80.2599C55.94 87.1499 46.7 90.5899 35.78 90.5899C28.55 90.5899 22.25 89.3299 16.88 86.8099C11.5 84.2899 7.35 80.6799 4.41 75.9699C1.47 71.2699 0 65.8199 0 59.5999C0 52.2899 1.66 45.6999 4.98 39.8199C8.3 33.9399 12.9 29.3199 18.78 25.9599C24.66 22.5999 31.25 20.9199 38.56 20.9199C45.28 20.9199 51.13 22.1799 56.13 24.6999ZM50.53 47.2499C50.53 44.0599 49.56 41.5199 47.63 39.6299C45.7 37.7399 43.09 36.7999 39.82 36.7999C36.29 36.7999 33.1 37.9799 30.24 40.3299C27.38 42.6799 25.2 45.7899 23.69 49.6499H50.4C50.48 49.1399 50.53 48.3399 50.53 47.2499Z" fill="#273FB2"/>
<path d="M150.82 4.09C156.95 6.82 161.99 10.54 165.94 15.24L150.82 31.37C148.3 27.76 145.19 24.88 141.5 22.74C137.8 20.6 134.02 19.53 130.16 19.53C125.37 19.53 120.92 20.77 116.8 23.25C112.68 25.73 109.43 29.11 107.04 33.39C104.65 37.67 103.45 42.38 103.45 47.5C103.45 51.87 104.37 55.82 106.22 59.34C108.07 62.87 110.63 65.64 113.91 67.66C117.19 69.68 120.88 70.68 125 70.68C128.61 70.68 132.5 69.76 136.65 67.91C140.81 66.06 144.61 63.54 148.05 60.35L160.02 74.84C154.73 79.88 148.64 83.89 141.75 86.87C134.86 89.85 128.18 91.34 121.72 91.34C113.57 91.34 106.3 89.53 99.92 85.92C93.53 82.32 88.58 77.34 85.05 71C81.52 64.66 79.76 57.5 79.76 49.52C79.76 40.28 82.07 31.88 86.69 24.32C91.31 16.76 97.61 10.82 105.59 6.49C113.57 2.16 122.3 0 131.8 0C138.35 0 144.69 1.37 150.82 4.09Z" fill="#5169F8"/>
<path d="M225.54 24.7C230.66 27.3 234.61 30.96 237.38 35.66C240.15 40.37 241.54 45.87 241.54 52.17C241.54 59.65 239.8 66.28 236.31 72.08C232.82 77.88 227.97 82.39 221.76 85.62C215.54 88.85 208.49 90.47 200.59 90.47C193.7 90.47 187.69 89.17 182.57 86.56C177.44 83.96 173.5 80.28 170.73 75.54C167.96 70.79 166.57 65.27 166.57 58.97C166.57 51.49 168.31 44.86 171.8 39.06C175.28 33.26 180.12 28.77 186.29 25.58C192.46 22.39 199.54 20.79 207.52 20.79C214.41 20.79 220.41 22.09 225.54 24.7ZM193.91 44.23C190.8 47.76 189.25 52.34 189.25 57.96C189.25 62.41 190.42 66 192.78 68.73C195.13 71.46 198.28 72.83 202.23 72.83C207.02 72.83 210.97 71.07 214.07 67.54C217.18 64.01 218.73 59.43 218.73 53.81C218.73 49.36 217.55 45.77 215.2 43.04C212.85 40.31 209.7 38.95 205.75 38.95C200.97 38.93 197.02 40.7 193.91 44.23Z" fill="#5169F8"/>
<path d="M306.68 24.7C311.8 27.3 315.75 30.96 318.52 35.66C321.29 40.37 322.68 45.87 322.68 52.17C322.68 59.65 320.94 66.28 317.45 72.08C313.96 77.88 309.11 82.39 302.9 85.62C296.68 88.85 289.63 90.47 281.73 90.47C274.84 90.47 268.83 89.17 263.71 86.56C258.58 83.96 254.64 80.28 251.87 75.54C249.1 70.79 247.71 65.27 247.71 58.97C247.71 51.49 249.45 44.86 252.94 39.06C256.42 33.26 261.26 28.77 267.43 25.58C273.6 22.39 280.68 20.79 288.66 20.79C295.55 20.79 301.56 22.09 306.68 24.7ZM275.06 44.23C271.95 47.76 270.4 52.34 270.4 57.96C270.4 62.41 271.57 66 273.93 68.73C276.28 71.46 279.43 72.83 283.38 72.83C288.17 72.83 292.12 71.07 295.22 67.54C298.33 64.01 299.88 59.43 299.88 53.81C299.88 49.36 298.7 45.77 296.35 43.04C294 40.31 290.85 38.95 286.9 38.95C282.11 38.93 278.16 40.7 275.06 44.23Z" fill="#5169F8"/>
<path d="M397.15 24.57C401.18 27.09 404.31 30.6 406.54 35.09C408.76 39.58 409.88 44.77 409.88 50.65C409.88 58.04 408.28 64.78 405.09 70.87C401.9 76.96 397.55 81.77 392.05 85.3C386.55 88.83 380.48 90.59 373.84 90.59C368.8 90.59 364.49 89.56 360.92 87.5C357.35 85.44 354.64 82.44 352.79 78.49L345.61 114.15H323.18L341.7 21.54H364L362.36 29.6C365.21 26.75 368.45 24.56 372.06 23.05C375.67 21.54 379.45 20.78 383.4 20.78C388.54 20.79 393.12 22.05 397.15 24.57ZM365.96 40.63C363.31 42.44 361.21 44.85 359.66 47.88C358.1 50.9 357.33 54.22 357.33 57.83C357.33 62.03 358.48 65.41 360.79 67.97C363.1 70.53 366.19 71.81 370.05 71.81C373.16 71.81 376.01 70.93 378.62 69.16C381.22 67.4 383.3 65 384.86 61.98C386.41 58.96 387.19 55.64 387.19 52.03C387.19 47.66 386.06 44.22 383.79 41.7C381.52 39.18 378.46 37.92 374.59 37.92C371.49 37.93 368.61 38.83 365.96 40.63Z" fill="#5169F8"/>
<path d="M267.1 114.36C264 130.87 248.63 143.93 231.71 143.93C223.67 143.93 216.52 140.89 211.59 135.38C206.66 129.86 204.44 122.42 205.34 114.43L204.84 114.37H183.27C182.36 127.78 186.55 140.37 195.19 150.04C204.35 160.29 217.32 165.93 231.71 165.93C245.64 165.93 259.28 160.59 270.12 150.91C280.96 141.22 287.79 128.26 289.34 114.42L288.84 114.36H267.1V114.36Z" fill="#5169F8"/>
</g>
<defs>
<clipPath id="clip0">
<rect width="409.88" height="165.93" fill="white"/>
</clipPath>
</defs>
</svg>
